<svg xmlns="http://www.w3.org/2000/svg" xmlns:xlink="http://www.w3.org/1999/xlink" viewBox="0 0 982.94 625.28"><defs><style>.cls-1{fill:none;}.cls-2{isolation:isolate;}.cls-3{fill:url(#linear-gradient);}.cls-4{fill:#fff;}.cls-5{clip-path:url(#clip-path);}.cls-10,.cls-23,.cls-24,.cls-25,.cls-26,.cls-6,.cls-7,.cls-9{mix-blend-mode:screen;}.cls-6{fill:url(#linear-gradient-2);}.cls-7{fill:url(#linear-gradient-3);}.cls-8{fill:url(#linear-gradient-4);}.cls-10,.cls-9{opacity:0.5;}.cls-9{fill:url(#linear-gradient-5);}.cls-10{fill:url(#linear-gradient-6);}.cls-11{fill:url(#linear-gradient-7);}.cls-12{fill:url(#linear-gradient-8);}.cls-13{fill:url(#linear-gradient-9);}.cls-14{fill:url(#linear-gradient-10);}.cls-15{fill:url(#linear-gradient-11);}.cls-16{fill:url(#linear-gradient-12);}.cls-17{fill:url(#linear-gradient-13);}.cls-18{fill:url(#linear-gradient-14);}.cls-19{fill:url(#linear-gradient-15);}.cls-20{fill:url(#linear-gradient-16);}.cls-21{fill:url(#linear-gradient-17);}.cls-22{fill:#2a0043;}.cls-23{fill:url(#linear-gradient-18);}.cls-24{fill:url(#linear-gradient-19);}.cls-25{fill:url(#linear-gradient-20);}.cls-26{fill:url(#linear-gradient-21);}</style><linearGradient id="linear-gradient" x1="500.38" y1="15.88" x2="500.38" y2="392.07" gradientUnits="userSpaceOnUse"><stop offset="0" stop-color="#4e0087"/><stop offset="0.53" stop-color="#b51edd"/><stop offset="0.78" stop-color="#ff438f"/><stop offset="1" stop-color="#ffb368"/></linearGradient><clipPath id="clip-path" transform="translate(125.38)"><rect class="cls-1" y="1" width="750" height="500"/></clipPath><linearGradient id="linear-gradient-2" x1="375.58" y1="281.78" x2="375.58" y2="402.31" gradientUnits="userSpaceOnUse"><stop offset="0" stop-color="#77005f"/><stop offset="0.07" stop-color="#670052"/><stop offset="0.26" stop-color="#420035"/><stop offset="0.45" stop-color="#25001e"/><stop offset="0.64" stop-color="#11000d"/><stop offset="0.82" stop-color="#040003"/><stop offset="1"/></linearGradient><linearGradient id="linear-gradient-3" x1="418.96" y1="251.86" x2="418.96" y2="350" gradientTransform="matrix(-1, 0, 0, 1, 750, 0)" gradientUnits="userSpaceOnUse"><stop offset="0" stop-color="#77005f"/><stop offset="0.15" stop-color="#6f0058"/><stop offset="0.38" stop-color="#580046"/><stop offset="0.67" stop-color="#320028"/><stop offset="1"/></linearGradient><linearGradient id="linear-gradient-4" x1="402.84" y1="304.75" x2="402.84" y2="405.67" gradientUnits="userSpaceOnUse"><stop offset="0" stop-color="#4e0087"/><stop offset="0.53" stop-color="#b51edd"/><stop offset="1" stop-color="#ff438f"/></linearGradient><linearGradient id="linear-gradient-5" x1="-18.31" y1="366.94" x2="139.73" y2="413.08" gradientUnits="userSpaceOnUse"><stop offset="0" stop-color="#3e0086"/><stop offset="0.15" stop-color="#5c0d8c"/><stop offset="1" stop-color="#b51edd"/></linearGradient><linearGradient id="linear-gradient-6" x1="231.38" y1="353.86" x2="434.86" y2="413.26" xlink:href="#linear-gradient-5"/><linearGradient id="linear-gradient-7" x1="375" y1="315.2" x2="375" y2="452.41" xlink:href="#linear-gradient-4"/><linearGradient id="linear-gradient-8" x1="835.6" y1="437.74" x2="480.78" y2="437.74" xlink:href="#linear-gradient-4"/><linearGradient id="linear-gradient-9" x1="754.02" y1="442.24" x2="445.8" y2="442.24" xlink:href="#linear-gradient-4"/><linearGradient id="linear-gradient-10" x1="20.9" y1="436.76" x2="326.77" y2="436.76" xlink:href="#linear-gradient-4"/><linearGradient id="linear-gradient-11" x1="-60.93" y1="436.76" x2="244.94" y2="436.76" xlink:href="#linear-gradient-4"/><linearGradient id="linear-gradient-12" x1="500.38" y1="498.28" x2="500.38" y2="448.67" gradientUnits="userSpaceOnUse"><stop offset="0" stop-color="#b51edd"/><stop offset="0.51" stop-color="#ff438f"/><stop offset="1" stop-color="#ff8768"/></linearGradient><linearGradient id="linear-gradient-13" x1="291.23" y1="442.48" x2="291.23" y2="460.27" xlink:href="#linear-gradient-12"/><linearGradient id="linear-gradient-14" x1="517.42" y1="457.36" x2="517.42" y2="547.46" xlink:href="#linear-gradient-12"/><linearGradient id="linear-gradient-15" x1="415.89" y1="475.11" x2="415.89" y2="450.62" xlink:href="#linear-gradient-12"/><linearGradient id="linear-gradient-16" x1="595.64" y1="447.11" x2="595.64" y2="507.85" xlink:href="#linear-gradient-12"/><linearGradient id="linear-gradient-17" x1="778.39" y1="421.88" x2="778.39" y2="465.72" xlink:href="#linear-gradient-12"/><linearGradient id="linear-gradient-18" x1="73.89" y1="123.58" x2="73.89" y2="173.87" xlink:href="#linear-gradient-2"/><linearGradient id="linear-gradient-19" x1="14.93" y1="140.59" x2="14.93" y2="192.02" xlink:href="#linear-gradient-2"/><linearGradient id="linear-gradient-20" x1="703.26" y1="196.15" x2="703.26" y2="227.39" xlink:href="#linear-gradient-2"/><linearGradient id="linear-gradient-21" x1="892.76" y1="43.12" x2="772.15" y2="163.73" gradientUnits="userSpaceOnUse"><stop offset="0" stop-color="#f01"/><stop offset="1"/></linearGradient></defs><title>2811554</title><g class="cls-2"><g id="BACKGROUND"><rect class="cls-3" x="125.38" width="750" height="500"/><path class="cls-4" d="M501.83,90.33a.67.67,0,1,1-.66-.66A.67.67,0,0,1,501.83,90.33Z" transform="translate(125.38)"/><path class="cls-4" d="M285,116.5a.67.67,0,1,1-.67-.67A.67.67,0,0,1,285,116.5Z" transform="translate(125.38)"/><circle class="cls-4" cx="450.38" cy="52.5" r="0.67"/><circle class="cls-4" cx="135.72" cy="14.19" r="0.67"/><path class="cls-4" d="M103.5,20.5a.67.67,0,1,1-.67-.67A.67.67,0,0,1,103.5,20.5Z" transform="translate(125.38)"/><path class="cls-4" d="M24.53,250a.67.67,0,1,1-.67-.67A.67.67,0,0,1,24.53,250Z" transform="translate(125.38)"/><path class="cls-4" d="M38.5,145a.67.67,0,1,1-.67-.67A.67.67,0,0,1,38.5,145Z" transform="translate(125.38)"/><path class="cls-4" d="M175.17,183.5a.67.67,0,1,1-.67-.67A.67.67,0,0,1,175.17,183.5Z" transform="translate(125.38)"/><circle class="cls-4" cx="791.24" cy="260.83" r="0.67"/><path class="cls-4" d="M112.67,98a.67.67,0,1,1-.67-.67A.67.67,0,0,1,112.67,98Z" transform="translate(125.38)"/><path class="cls-4" d="M264,77a.67.67,0,1,1-.67-.67A.67.67,0,0,1,264,77Z" transform="translate(125.38)"/><path class="cls-4" d="M396.83,105a.67.67,0,1,1-.66-.67A.67.67,0,0,1,396.83,105Z" transform="translate(125.38)"/><path class="cls-4" d="M490,13.52a.67.67,0,1,1-.67-.67A.67.67,0,0,1,490,13.52Z" transform="translate(125.38)"/><circle class="cls-4" cx="726.88" cy="101.5" r="0.67"/><path class="cls-4" d="M703.67,78.33a.67.67,0,1,1-.67-.66A.67.67,0,0,1,703.67,78.33Z" transform="translate(125.38)"/><path class="cls-4" d="M543.67,30.33a.67.67,0,1,1-.67-.66A.67.67,0,0,1,543.67,30.33Z" transform="translate(125.38)"/><path class="cls-4" d="M225.17,126.33a.67.67,0,1,1-.67-.66A.67.67,0,0,1,225.17,126.33Z" transform="translate(125.38)"/><path class="cls-4" d="M194.17,36.17a.67.67,0,1,1-.67-.67A.67.67,0,0,1,194.17,36.17Z" transform="translate(125.38)"/><path class="cls-4" d="M534,86.16a.67.67,0,1,1-1.33,0,.67.67,0,0,1,1.33,0Z" transform="translate(125.38)"/><path class="cls-4" d="M632.33,186a.67.67,0,1,1-.66-.67A.67.67,0,0,1,632.33,186Z" transform="translate(125.38)"/><path class="cls-4" d="M714,91a.67.67,0,1,1-.67-.67A.67.67,0,0,1,714,91Z" transform="translate(125.38)"/><path class="cls-4" d="M715.33,161a.67.67,0,1,1-.66-.67A.67.67,0,0,1,715.33,161Z" transform="translate(125.38)"/><path class="cls-4" d="M460.17,130.33a.67.67,0,1,1-.67-.66A.67.67,0,0,1,460.17,130.33Z" transform="translate(125.38)"/><circle class="cls-4" cx="665.38" cy="170.5" r="0.67"/><g class="cls-5"><path class="cls-6" d="M798,359.71c2,0,4,.22,6,.32,2.46,9.08.6,16.12.08,24.94-.69,11.63,0,23.51,0,35.15V489c0,11.35,0,136.3,0,136.3H-54.06v-269c9.17,4,120.49-62.95,183.76-62.95,74.64,0,141.34,53.68,196,53.68,66.44,0,134.5-65.21,191.2-65.21C621.61,281.78,696.51,359.71,798,359.71Z" transform="translate(125.38)"/><path class="cls-7" d="M-123.55,251.92a10.17,10.17,0,0,0-1.83.33v279.3H787.45V347.33c-66.22,0-116.71-58.69-187.18-58.69-55,0-116.88,55.84-176.53,55.84-63.14,0-143.18-64.18-226.08-64.18-86.11,0-213.25,90.07-237.84,75.55-9.48-5.59-19.28-21.44-29.33-39.12C-86.86,286.2-105,250.17-123.55,251.92Z" transform="translate(125.38)"/><path class="cls-8" d="M-51.88,352.82s75.51-55.66,109.66-55.66,108.65,50.95,138,50.95,66.05-28.93,94.14-28.93S417,377.6,449.3,377.6,585.65,295,648.08,295s209.48,89.39,209.48,89.39L797.31,499.88H-49.63Z" transform="translate(125.38)"/><path class="cls-9" d="M304.83,376.53v73.88H-22.63V350.18C.42,357.57,23.6,365,48.49,361.66c18.45-2.47,31.33-12,47.06-17.94,17.83-6.74,40.17-8,59.34-2.91,17.14,4.56,28.21,13.09,43.52,19.45,15,6.23,31.92,10.51,49.29,13.05C266.48,376.07,285.65,376.75,304.83,376.53Z" transform="translate(125.38)"/><path class="cls-10" d="M650.61,376.53v73.88h-430V350.18c30.27,7.39,60.71,14.82,93.4,11.48,24.22-2.47,41.14-12,61.79-17.94,23.42-6.74,52.76-8,77.93-2.91,22.51,4.56,37.05,13.09,57.16,19.45,19.74,6.23,41.91,10.51,64.72,13.05C600.26,376.07,625.44,376.75,650.61,376.53Z" transform="translate(125.38)"/><path class="cls-11" d="M821.53,351.61a93.73,93.73,0,0,1,12.94-2.34V563.14H-84.47V409.66c31.74.46,63.48-1,94.6-6.69,28.76-5.29,147.55-68.12,177.48-68.12,39.67,0,132,54.34,177.08,54.34,68.76,0,130.5-77.05,176.7-77.05,44.18,0,121.17,53.41,148.16,59.7,31.28,7.3,65.81,1.83,95.26-8C797.05,359.73,808.89,354.78,821.53,351.61Z" transform="translate(125.38)"/><path class="cls-12" d="M810.23,455.84a3.72,3.72,0,0,0-.2-5.29,3.54,3.54,0,0,0-3.86,0,9,9,0,0,0-15.66-6.1c-1.4-3.7-4.63-6-7.73-5.69a6.88,6.88,0,0,0-4.27,2.24c1.61-5.14-.63-10.5-4.88-12.61a10.25,10.25,0,0,0-10.57,1.22,2.79,2.79,0,0,0-5.08-2c-.28-4.37-3.5-7.68-7.12-7.93-4-.28-6.56,3.25-6.71,3.46a2.87,2.87,0,0,0-5.49,1.62,5.14,5.14,0,0,0-8.74,4.68,5.2,5.2,0,0,0-8.95-2.85c-.18-.28-2.91-4.32-7.72-4.27a9.31,9.31,0,0,0-8.54,6.31,11.58,11.58,0,0,0-6.1-3.26c-5.56-1-9.68,2.79-10.17,3.26a7.35,7.35,0,0,0-3.25-1.83c-3.09-.78-6.57.64-9.05,3.55a6.25,6.25,0,0,0-5.29-2.33,6.15,6.15,0,0,0-4.57,3.05,7.25,7.25,0,0,0-12-3,2.64,2.64,0,0,0-5-1.12,6.08,6.08,0,0,0-10.47,3.15,3.27,3.27,0,0,0-3,.31,3.2,3.2,0,0,0-1.32,2.43,26.18,26.18,0,0,0-12.3,4.58,4,4,0,0,0-4.88-.51,4.09,4.09,0,0,0-.72,5.8,2.18,2.18,0,0,0-2.94,2.94,4.44,4.44,0,0,0,.91,3.05,4.66,4.66,0,0,0,3.76,1.63Z" transform="translate(125.38)"/><path class="cls-13" d="M685.19,460.35a3.72,3.72,0,0,0-.2-5.29,3.52,3.52,0,0,0-3.86,0,9,9,0,0,0-15.66-6.1c-1.4-3.71-4.63-6-7.72-5.69a6.82,6.82,0,0,0-4.27,2.23c1.61-5.14-.63-10.49-4.88-12.6A10.22,10.22,0,0,0,638,434.12a2.8,2.8,0,0,0-5.08-2c-.28-4.36-3.5-7.67-7.12-7.93-4-.27-6.56,3.25-6.71,3.46a2.88,2.88,0,0,0-5.49,1.63,5.14,5.14,0,0,0-8.74,4.67,5.2,5.2,0,0,0-9-2.84c-.18-.28-2.91-4.32-7.72-4.27a9.3,9.3,0,0,0-8.54,6.3,11.47,11.47,0,0,0-6.1-3.25c-5.56-1-9.68,2.78-10.17,3.25a7.43,7.43,0,0,0-3.25-1.83c-3.09-.78-6.56.65-9,3.56a5.86,5.86,0,0,0-9.86.71,7.67,7.67,0,0,0-5-4.78,7.77,7.77,0,0,0-7,1.83,2.64,2.64,0,0,0-5-1.12,6.08,6.08,0,0,0-10.47,3.16,3.07,3.07,0,0,0-4.27,2.74,26.33,26.33,0,0,0-12.3,4.57,4,4,0,0,0-4.88-.5,4.08,4.08,0,0,0-.71,5.79,2.2,2.2,0,0,0-2.95,2.95,4.45,4.45,0,0,0,.91,3.05,4.7,4.7,0,0,0,3.77,1.63Z" transform="translate(125.38)"/><path class="cls-14" d="M22.31,462.74c-2.24-2.82-1.64-6.6.57-8.16a5.47,5.47,0,0,1,6,.19,13.84,13.84,0,0,1,24.49-8.65c2.34-5.66,7.44-9,12.21-8.41A10.66,10.66,0,0,1,72,441.38c-2.23-8,1.49-16.18,8.16-19.23a15.83,15.83,0,0,1,16.27,2.4,4.32,4.32,0,0,1,8-2.89c.65-6.72,5.78-11.68,11.39-11.89,6.14-.23,10,5.34,10.19,5.67a4.44,4.44,0,0,1,8.4,2.78,7.95,7.95,0,0,1,13.28,7.66,8,8,0,0,1,14-4c.29-.42,4.7-6.52,12.14-6.21a14.38,14.38,0,0,1,12.88,10.16,17.83,17.83,0,0,1,9.58-4.73c8.64-1.24,14.81,4.79,15.55,5.53A11.4,11.4,0,0,1,216.9,424c4.8-1.06,10.11,1.32,13.8,5.94A9.64,9.64,0,0,1,239,426.6a9.5,9.5,0,0,1,6.91,4.94,11.84,11.84,0,0,1,7.93-7.14c6.12-1.47,10.55,3,10.75,3.17a4.08,4.08,0,0,1,7.75-1.48,9.41,9.41,0,0,1,16,5.39,4.75,4.75,0,0,1,6.46,4.45,40.73,40.73,0,0,1,18.77,7.67,6.23,6.23,0,0,1,7.57-.54,6.33,6.33,0,0,1,.81,9,3.41,3.41,0,0,1,3.75.59,3.46,3.46,0,0,1,.66,4.11,6.88,6.88,0,0,1-1.57,4.66,7.2,7.2,0,0,1-5.89,2.33Z" transform="translate(125.38)"/><path class="cls-15" d="M-59.51,462.74c-2.24-2.82-1.65-6.6.57-8.16a5.47,5.47,0,0,1,6,.19,14,14,0,0,1,8.58-12.61,14,14,0,0,1,15.9,4c2.35-5.66,7.45-9,12.22-8.41a10.59,10.59,0,0,1,6.48,3.67c-2.23-8,1.5-16.18,8.17-19.23a15.83,15.83,0,0,1,16.27,2.4,4.32,4.32,0,0,1,8-2.89c.64-6.72,5.78-11.68,11.38-11.89,6.15-.23,10,5.34,10.2,5.67a4.44,4.44,0,0,1,8.4,2.78,8.1,8.1,0,0,1,8.85-1.6,8.18,8.18,0,0,1,4.42,9.26,8,8,0,0,1,14-4c.3-.42,4.71-6.52,12.15-6.21a14.38,14.38,0,0,1,12.88,10.16,17.79,17.79,0,0,1,9.58-4.73c8.64-1.24,14.81,4.79,15.54,5.53a11.49,11.49,0,0,1,5.12-2.66c4.8-1.06,10.1,1.32,13.8,5.94a9.63,9.63,0,0,1,8.28-3.35,9.5,9.5,0,0,1,6.92,4.94A11.84,11.84,0,0,1,172,424.4c6.12-1.47,10.55,3,10.74,3.17a4.08,4.08,0,0,1,7.75-1.48,9.41,9.41,0,0,1,16,5.39,5,5,0,0,1,4.54.62,5,5,0,0,1,1.92,3.83,40.83,40.83,0,0,1,18.78,7.67,6.22,6.22,0,0,1,7.56-.54,6.32,6.32,0,0,1,.82,9,3.38,3.38,0,0,1,4.4,4.7,6.8,6.8,0,0,1-1.56,4.66,7.2,7.2,0,0,1-5.89,2.33Z" transform="translate(125.38)"/><rect class="cls-16" x="125.38" y="448.15" width="750" height="52.85"/><polygon class="cls-17" points="100.92 453.08 481.53 452.56 110.7 456.62 100.92 453.08"/><polygon class="cls-18" points="903.54 495.41 879.18 501 532.71 501 131.29 484.99 903.54 495.41"/><polygon class="cls-19" points="66.22 460.69 765.57 458.99 98.03 472.2 66.22 460.69"/><polygon class="cls-20" points="886.64 467.81 597.76 467.81 857.08 475.11 290.28 474.43 901 484.2 886.64 467.81"/><polygon class="cls-21" points="889.18 450.33 666.76 452.79 890.02 458.18 889.18 450.33"/><path class="cls-22" d="M-1.32,442.91v54.74c50-2,229.67-10.15,229.34-18.28S49.91,449-1.32,442.91Z" transform="translate(125.38)"/><path class="cls-22" d="M-15.09,468.33v38.72c34.3-1.45,176-7.18,175.78-12.93S20.07,472.63-15.09,468.33Z" transform="translate(125.38)"/><path class="cls-22" d="M757.14,465.47c-50.67,0-171.4,12.2-183.06,20.43-7,4.91,135.34,9.32,142.19,13.69,2.66,1.69-43.47,3.51-48.41,7.74-5.52,4.72,89.28,8.81,89.28,8.81Z" transform="translate(125.38)"/><rect class="cls-22" x="213.42" y="451.5" width="0.98" height="5.36"/><path class="cls-22" d="M89.46,439.91a1,1,0,0,0-1.85,0c-1.93,3.71-5.67,12.3.92,12.3S91.38,443.62,89.46,439.91Z" transform="translate(125.38)"/><rect class="cls-22" x="205.8" y="449.52" width="1.4" height="7.63"/><path class="cls-22" d="M82.44,433a1.48,1.48,0,0,0-2.63,0c-2.74,5.28-8.08,17.51,1.31,17.51S85.18,438.29,82.44,433Z" transform="translate(125.38)"/><rect class="cls-22" x="195.38" y="447.83" width="1.4" height="7.63"/><path class="cls-22" d="M72,431.33a1.48,1.48,0,0,0-2.63,0c-2.74,5.28-8.08,17.51,1.31,17.51S74.76,436.61,72,431.33Z" transform="translate(125.38)"/><rect class="cls-22" x="128.6" y="439.8" width="1.38" height="7.5"/><path class="cls-22" d="M5.21,423.58a1.46,1.46,0,0,0-2.59,0c-2.69,5.19-7.94,17.21,1.3,17.21S7.91,428.77,5.21,423.58Z" transform="translate(125.38)"/><polygon class="cls-22" points="170.42 415.51 171.5 453.79 169.34 453.79 170.42 415.51"/><polygon class="cls-22" points="170.1 438.31 179.18 429.89 170.75 438.97 170.1 438.31"/><polygon class="cls-22" points="170.1 441.46 158.71 429.42 170.75 440.81 170.1 441.46"/><path class="cls-22" d="M60.65,424.47a1.43,1.43,0,0,0-1.8-1.79c-5.47,1.73-17.45,6.43-11,12.83S58.91,429.94,60.65,424.47Z" transform="translate(125.38)"/><path class="cls-22" d="M30,427.44a1.43,1.43,0,0,1,1.8-1.8c5.47,1.74,17.45,6.44,11,12.84S31.78,432.91,30,427.44Z" transform="translate(125.38)"/><path class="cls-22" d="M46.65,412.36a1.81,1.81,0,0,0-3.21,0c-3.35,6.45-9.86,21.38,1.61,21.38S50,418.81,46.65,412.36Z" transform="translate(125.38)"/><polygon class="cls-22" points="153.03 424.91 153.84 453.63 152.22 453.63 153.03 424.91"/><polygon class="cls-22" points="152.78 442.02 159.6 435.7 153.27 442.51 152.78 442.02"/><polygon class="cls-22" points="152.78 444.38 144.23 435.34 153.27 443.89 152.78 444.38"/><path class="cls-22" d="M39.36,431.63A1.08,1.08,0,0,0,38,430.28c-4.11,1.3-13.1,4.83-8.29,9.64S38.06,435.74,39.36,431.63Z" transform="translate(125.38)"/><path class="cls-22" d="M16.39,433.86a1.08,1.08,0,0,1,1.35-1.35c4.1,1.3,13.09,4.83,8.29,9.64S17.69,438,16.39,433.86Z" transform="translate(125.38)"/><path class="cls-22" d="M28.86,422.54a1.36,1.36,0,0,0-2.41,0c-2.52,4.84-7.41,16,1.2,16S31.37,427.38,28.86,422.54Z" transform="translate(125.38)"/><rect class="cls-22" x="292.06" y="464.51" width="1.82" height="9.89"/><path class="cls-22" d="M169.3,443.12a1.92,1.92,0,0,0-3.41,0c-3.56,6.85-10.47,22.7,1.7,22.7S172.85,450,169.3,443.12Z" transform="translate(125.38)"/><rect class="cls-22" x="270.83" y="459.85" width="0.98" height="5.36"/><path class="cls-22" d="M146.86,448.26a1,1,0,0,0-1.84,0c-1.93,3.71-5.67,12.3.92,12.3S148.79,452,146.86,448.26Z" transform="translate(125.38)"/><rect class="cls-22" x="329.87" y="468.13" width="0.98" height="5.36"/><path class="cls-22" d="M205.91,456.54a1,1,0,0,0-1.85,0c-1.93,3.71-5.67,12.29.92,12.29S207.83,460.25,205.91,456.54Z" transform="translate(125.38)"/><rect class="cls-22" x="321.7" y="467.21" width="0.98" height="5.36"/><path class="cls-22" d="M197.74,455.62a1,1,0,0,0-1.85,0c-1.93,3.71-5.67,12.29.92,12.29S199.66,459.33,197.74,455.62Z" transform="translate(125.38)"/><rect class="cls-22" x="280.01" y="464.51" width="1.82" height="9.89"/><path class="cls-22" d="M157.24,443.12a1.91,1.91,0,0,0-3.4,0c-3.56,6.85-10.48,22.7,1.7,22.7S160.8,450,157.24,443.12Z" transform="translate(125.38)"/><polygon class="cls-22" points="263.77 440.08 264.52 466.69 263.02 466.69 263.77 440.08"/><polygon class="cls-22" points="263.55 455.93 269.86 450.07 264 456.39 263.55 455.93"/><polygon class="cls-22" points="263.55 458.12 255.63 449.75 264 457.67 263.55 458.12"/><path class="cls-22" d="M149.24,446.3a1,1,0,0,0-1.24-1.24c-3.81,1.2-12.14,4.47-7.68,8.92S148,450.11,149.24,446.3Z" transform="translate(125.38)"/><path class="cls-22" d="M128,448.37a1,1,0,0,1,1.24-1.25c3.81,1.21,12.14,4.47,7.68,8.93S129.17,452.17,128,448.37Z" transform="translate(125.38)"/><path class="cls-22" d="M139.51,437.88a1.26,1.26,0,0,0-2.23,0c-2.33,4.49-6.86,14.87,1.12,14.87S141.84,442.37,139.51,437.88Z" transform="translate(125.38)"/><rect class="cls-22" x="807.32" y="467.65" width="1.82" height="9.89"/><path class="cls-22" d="M684.55,446.26a1.92,1.92,0,0,0-3.41,0c-3.55,6.84-10.47,22.7,1.71,22.7S688.11,453.1,684.55,446.26Z" transform="translate(125.38)"/><rect class="cls-22" x="846.16" y="466.36" width="2.69" height="14.63"/><path class="cls-22" d="M724.65,434.73a2.84,2.84,0,0,0-5,0c-5.25,10.12-15.48,33.56,2.53,33.56S729.9,444.85,724.65,434.73Z" transform="translate(125.38)"/><rect class="cls-22" x="793.02" y="467.65" width="1.82" height="9.89"/><path class="cls-22" d="M670.25,446.26a1.92,1.92,0,0,0-3.41,0c-3.55,6.84-10.47,22.7,1.71,22.7S673.81,453.1,670.25,446.26Z" transform="translate(125.38)"/><rect class="cls-22" x="779.37" y="469.79" width="1.09" height="5.91"/><path class="cls-22" d="M655.55,457a1.15,1.15,0,0,0-2,0c-2.12,4.09-6.25,13.56,1,13.56S657.68,461.1,655.55,457Z" transform="translate(125.38)"/><polygon class="cls-22" points="833.2 441.62 834.28 479.89 832.12 479.89 833.2 441.62"/><polygon class="cls-22" points="832.87 464.42 841.95 455.99 833.53 465.07 832.87 464.42"/><polygon class="cls-22" points="832.87 467.57 821.48 455.52 833.53 466.91 832.87 467.57"/><path class="cls-22" d="M723.42,450.57a1.43,1.43,0,0,0-1.79-1.79c-5.48,1.73-17.45,6.43-11,12.84S721.69,456.05,723.42,450.57Z" transform="translate(125.38)"/><path class="cls-22" d="M692.82,453.54a1.43,1.43,0,0,1,1.79-1.79c5.48,1.73,17.46,6.43,11,12.84S694.55,459,692.82,453.54Z" transform="translate(125.38)"/><path class="cls-22" d="M709.43,438.46a1.81,1.81,0,0,0-3.21,0c-3.35,6.45-9.87,21.38,1.6,21.38S712.78,444.91,709.43,438.46Z" transform="translate(125.38)"/><polygon class="cls-22" points="868.72 441.62 869.8 479.89 867.64 479.89 868.72 441.62"/><polygon class="cls-22" points="868.4 464.42 877.48 455.99 869.05 465.07 868.4 464.42"/><polygon class="cls-22" points="868.4 467.57 857.01 455.52 869.05 466.91 868.4 467.57"/><path class="cls-22" d="M758.94,450.57a1.42,1.42,0,0,0-1.79-1.79c-5.47,1.73-17.45,6.43-11,12.84S757.21,456.05,758.94,450.57Z" transform="translate(125.38)"/><path class="cls-22" d="M728.34,453.54a1.43,1.43,0,0,1,1.8-1.79c5.47,1.73,17.45,6.43,11,12.84S730.08,459,728.34,453.54Z" transform="translate(125.38)"/><path class="cls-22" d="M745,438.46a1.81,1.81,0,0,0-3.21,0c-3.35,6.45-9.86,21.38,1.61,21.38S748.3,444.91,745,438.46Z" transform="translate(125.38)"/><rect class="cls-22" x="140.49" y="444.4" width="2.09" height="11.4"/><path class="cls-22" d="M18.12,419.73a2.22,2.22,0,0,0-3.93,0c-4.1,7.9-12.07,26.18,2,26.18S22.22,427.63,18.12,419.73Z" transform="translate(125.38)"/><path class="cls-23" d="M-18.84,145.39C-3,130.63,9.31,128.3,17.57,128.88c17.64,1.22,21.29,16,40.17,16.89,18.37.89,25.26-12.58,38.29-7.13,9.29,3.87,10,12.48,20.65,14.64,7.11,1.45,10.84-1.6,17.65-2.63,18.49-2.81,39.71,12.26,39,18-.89,7.56-41.12,13-199,6.76" transform="translate(125.38)"/><path class="cls-24" d="M-48.94,162.9C-38,147.8-29.55,145.42-23.86,146c12.14,1.25,14.66,16.34,27.67,17.27,12.65.91,17.39-12.86,26.37-7.29,6.39,4,6.92,12.76,14.22,15,4.9,1.48,7.47-1.63,12.15-2.69,12.74-2.87,27.36,12.53,26.9,18.43-.61,7.73-28.33,13.33-137,6.91" transform="translate(125.38)"/><path class="cls-25" d="M767.65,205.84c-11.2-7.14-18.52-7.18-23.28-5.64-6,1.94-8.94,6.71-15.39,6-4.42-.48-5.94-3-10.51-2.63-4.12.37-6.44,2.76-8.64,4.13-8.25,5.17-20.05-.69-26.65-2.63-21.65-6.34-50.56,11-49.93,16.9s32.08,10,140,7.13" transform="translate(125.38)"/></g><circle class="cls-26" cx="791.24" cy="144.64" r="33.49"/></g></g></svg>